<svg xmlns="http://www.w3.org/2000/svg" width="919.9388427734375" height="1150.4366455078125" viewBox="-438.66229248046875 -560.996337890625 919.9388427734375 1150.4366455078125"><title>Neo4j Graph Visualization</title><desc>Created using Neo4j (http://www.neo4j.com/)</desc><g class="layer relationships"><g class="relationship" transform="translate(-39.05609256600701 550.7990420813555) rotate(363.85259442316385)"><path class="b-outline" fill="#A5ABB6" stroke="none" d="M 25 0.5 L 40.20705408840786 0.5 L 40.20705408840786 -0.5 L 25 -0.5 Z M 96.28517908840786 0.5 L 111.49223317681572 0.5 L 111.49223317681572 3.5 L 118.49223317681572 0 L 111.49223317681572 -3.5 L 111.49223317681572 -0.5 L 96.28517908840786 -0.5 Z"/><text text-anchor="middle" pointer-events="none" font-size="8px" fill="#000000" x="68.24611658840786" y="3" font-family="Helvetica Neue, Helvetica, Arial, sans-serif">WORKED_AT</text></g><g class="relationship" transform="translate(-38.27552891106862 -103.86950189650845) rotate(413.0087931583509)"><path class="b-outline" fill="#A5ABB6" stroke="none" d="M 25 0.5 L 43.38462294817565 0.5 L 43.38462294817565 -0.5 L 25 -0.5 Z M 99.46274794817565 0.5 L 117.8473708963513 0.5 L 117.8473708963513 3.5 L 124.8473708963513 0 L 117.8473708963513 -3.5 L 117.8473708963513 -0.5 L 99.46274794817565 -0.5 Z"/><text text-anchor="middle" pointer-events="none" font-size="8px" fill="#000000" x="71.42368544817565" y="3" font-family="Helvetica Neue, Helvetica, Arial, sans-serif">WORKED_AT</text></g><g class="relationship" transform="translate(57.507962198231276 -83.06106118145348) rotate(424.1452634076449)"><path class="b-outline" fill="#A5ABB6" stroke="none" d="M 25 0.5 L 62.953762651593976 0.5 L 62.953762651593976 -0.5 L 25 -0.5 Z M 119.03188765159398 0.5 L 156.98565030318795 0.5 L 156.98565030318795 3.5 L 163.98565030318795 0 L 156.98565030318795 -3.5 L 156.98565030318795 -0.5 L 119.03188765159398 -0.5 Z"/><text text-anchor="middle" pointer-events="none" font-size="8px" fill="#000000" x="90.99282515159398" y="3" font-family="Helvetica Neue, Helvetica, Arial, sans-serif">WORKED_AT</text></g><g class="relationship" transform="translate(57.507962198231276 -83.06106118145348) rotate(396.59316448138384)"><path class="b-outline" fill="#A5ABB6" stroke="none" d="M 25 0.5 L 74.48503700788105 0.5 L 74.48503700788105 -0.5 L 25 -0.5 Z M 130.56316200788103 0.5 L 180.0481990157621 0.5 L 180.0481990157621 3.5 L 187.0481990157621 0 L 180.0481990157621 -3.5 L 180.0481990157621 -0.5 L 130.56316200788103 -0.5 Z"/><text text-anchor="middle" pointer-events="none" font-size="8px" fill="#000000" x="102.52409950788105" y="3" font-family="Helvetica Neue, Helvetica, Arial, sans-serif">WORKED_AT</text></g><g class="relationship" transform="translate(-38.27552891106862 -103.86950189650845) rotate(453.490701509403)"><path class="b-outline" fill="#A5ABB6" stroke="none" d="M 25 0.5 L 67.3002687724081 0.5 L 67.3002687724081 -0.5 L 25 -0.5 Z M 123.3783937724081 0.5 L 165.6786625448162 0.5 L 165.6786625448162 3.5 L 172.6786625448162 0 L 165.6786625448162 -3.5 L 165.6786625448162 -0.5 L 123.3783937724081 -0.5 Z"/><text text-anchor="middle" pointer-events="none" font-size="8px" fill="#000000" x="95.3393312724081" y="3" transform="rotate(180 95.3393312724081 0)" font-family="Helvetica Neue, Helvetica, Arial, sans-serif">WORKED_AT</text></g><g class="relationship" transform="translate(-38.27552891106862 -103.86950189650845) rotate(386.8952422412001)"><path class="b-outline" fill="#A5ABB6" stroke="none" d="M 25 0.5 L 71.88188838400627 0.5 L 71.88188838400627 -0.5 L 25 -0.5 Z M 127.96001338400627 0.5 L 174.84190176801255 0.5 L 174.84190176801255 3.5 L 181.84190176801255 0 L 174.84190176801255 -3.5 L 174.84190176801255 -0.5 L 127.96001338400627 -0.5 Z"/><text text-anchor="middle" pointer-events="none" font-size="8px" fill="#000000" x="99.92095088400627" y="3" font-family="Helvetica Neue, Helvetica, Arial, sans-serif">WORKED_AT</text></g><g class="relationship" transform="translate(-38.27552891106862 -103.86950189650845) rotate(332.2692763938669)"><path class="b-outline" fill="#A5ABB6" stroke="none" d="M 25 0.5 L 78.68530668856557 0.5 L 78.68530668856557 -0.5 L 25 -0.5 Z M 134.76343168856556 0.5 L 188.44873837713115 0.5 L 188.44873837713115 3.5 L 195.44873837713115 0 L 188.44873837713115 -3.5 L 188.44873837713115 -0.5 L 134.76343168856556 -0.5 Z"/><text text-anchor="middle" pointer-events="none" font-size="8px" fill="#000000" x="106.72436918856557" y="3" font-family="Helvetica Neue, Helvetica, Arial, sans-serif">WORKED_AT</text></g><g class="relationship" transform="translate(236.82460629093222 -54.48167660005323) rotate(189.05560505835876)"><path class="b-outline" fill="#A5ABB6" stroke="none" d="M 25 0.5 L 53.84656307198742 0.5 L 53.84656307198742 -0.5 L 25 -0.5 Z M 120.73328182198742 0.5 L 149.57984489397484 0.5 L 149.57984489397484 3.5 L 156.57984489397484 0 L 149.57984489397484 -3.5 L 149.57984489397484 -0.5 L 120.73328182198742 -0.5 Z"/><text text-anchor="middle" pointer-events="none" font-size="8px" fill="#000000" x="87.28992244698742" y="3" transform="rotate(180 87.28992244698742 0)" font-family="Helvetica Neue, Helvetica, Arial, sans-serif">WORKED_WITH</text></g><g class="relationship" transform="translate(452.27658093323885 -438.8162871260865) rotate(219.830825072773)"><path class="b-outline" fill="#A5ABB6" stroke="none" d="M 25 0.5 L 35.79410617483258 0.5 L 35.79410617483258 -0.5 L 25 -0.5 Z M 102.68082492483258 0.5 L 113.47493109966516 0.5 L 113.47493109966516 3.5 L 120.47493109966516 0 L 113.47493109966516 -3.5 L 113.47493109966516 -0.5 L 102.68082492483258 -0.5 Z"/><text text-anchor="middle" pointer-events="none" font-size="8px" fill="#000000" x="69.23746554983258" y="3" transform="rotate(180 69.23746554983258 0)" font-family="Helvetica Neue, Helvetica, Arial, sans-serif">WORKED_WITH</text></g><g class="relationship" transform="translate(153.2761877060953 -108.01223548795546) rotate(489.3099737007786)"><path class="b-outline" fill="#A5ABB6" stroke="none" d="M 25 0.5 L 48.482400251901666 0.5 L 48.482400251901666 -0.5 L 25 -0.5 Z M 104.56052525190167 0.5 L 128.04292550380333 0.5 L 128.04292550380333 3.5 L 135.04292550380333 0 L 128.04292550380333 -3.5 L 128.04292550380333 -0.5 L 104.56052525190167 -0.5 Z"/><text text-anchor="middle" pointer-events="none" font-size="8px" fill="#000000" x="76.52146275190167" y="3" transform="rotate(180 76.52146275190167 0)" font-family="Helvetica Neue, Helvetica, Arial, sans-serif">WORKED_AT</text></g><g class="relationship" transform="translate(57.507962198231276 -83.06106118145348) rotate(481.4192202573706)"><path class="b-outline" fill="#A5ABB6" stroke="none" d="M 25 0.5 L 70.69022345343558 0.5 L 70.69022345343558 -0.5 L 25 -0.5 Z M 129.13944220343558 0.5 L 174.82966565687116 0.5 L 174.82966565687116 3.5 L 181.82966565687116 0 L 174.82966565687116 -3.5 L 174.82966565687116 -0.5 L 129.13944220343558 -0.5 Z"/><text text-anchor="middle" pointer-events="none" font-size="8px" fill="#000000" x="99.91483282843558" y="3" transform="rotate(180 99.91483282843558 0)" font-family="Helvetica Neue, Helvetica, Arial, sans-serif">WORKED_ON</text></g><g class="relationship" transform="translate(57.507962198231276 -83.06106118145348) rotate(399.36592281390256)"><path class="b-outline" fill="#A5ABB6" stroke="none" d="M 21.40063509461097,-12.933012701892217 L 21.90063509461097,-12.06698729810778 A 67.43281772931589 67.43281772931589 0 0 1 26.78994559579552,-14.62896021945538 L 26.362451990542525,-15.532978591761932 A 68.43281772931589 68.43281772931589 0 0 0 21.40063509461097,-12.933012701892217 Z M 81.23992800923327,-17.123306986103678 L 80.86550408661599,-16.19604934867388 A 67.43281772931589 67.43281772931589 0 0 1 85.89497461605181,-13.921518931148475 L 84.54794812318053,-11.240936974277375 L 92.37417026422959,-11.225220773927337 L 87.69100993988019,-17.49562820697661 L 86.34398344700891,-14.815046250105508 A 68.43281772931589 68.43281772931589 0 0 0 81.23992800923327,-17.123306986103678"/><text text-anchor="middle" pointer-events="none" font-size="8px" fill="#000000" x="53.64920286603694" y="-18.572764165706957" font-family="Helvetica Neue, Helvetica, Arial, sans-serif">WORKED_AT</text></g><g class="relationship" transform="translate(57.97893655088602 -202.63644295016894) rotate(450.2256710597506)"><path class="b-outline" fill="#A5ABB6" stroke="none" d="M 25 0.5 L 25.288154641983446 0.5 L 25.288154641983446 -0.5 L 25 -0.5 Z M 87.28815464198345 0.5 L 87.57630928396689 0.5 L 87.57630928396689 3.5 L 94.57630928396689 0 L 87.57630928396689 -3.5 L 87.57630928396689 -0.5 L 87.28815464198345 -0.5 Z"/><text text-anchor="middle" pointer-events="none" font-size="8px" fill="#000000" x="56.288154641983446" y="3" transform="rotate(180 56.288154641983446 0)" font-family="Helvetica Neue, Helvetica, Arial, sans-serif">WORKED_W…</text></g><g class="relationship" transform="translate(-125.81348541387263 -256.5689456993024) rotate(403.4246417018698)"><path class="b-outline" fill="#A5ABB6" stroke="none" d="M 25 0.5 L 89.26256277651449 0.5 L 89.26256277651449 -0.5 L 25 -0.5 Z M 156.14928152651447 0.5 L 220.41184430302897 0.5 L 220.41184430302897 3.5 L 227.41184430302897 0 L 220.41184430302897 -3.5 L 220.41184430302897 -0.5 L 156.14928152651447 -0.5 Z"/><text text-anchor="middle" pointer-events="none" font-size="8px" fill="#000000" x="122.70592215151449" y="3" font-family="Helvetica Neue, Helvetica, Arial, sans-serif">WORKED_WITH</text></g><g class="relationship" transform="translate(240.2554100096648 -154.01433212738152) rotate(518.780869273176)"><path class="b-outline" fill="#A5ABB6" stroke="none" d="M 25 0.5 L 61.075766742710954 0.5 L 61.075766742710954 -0.5 L 25 -0.5 Z M 127.96248549271095 0.5 L 164.0382522354219 0.5 L 164.0382522354219 3.5 L 171.0382522354219 0 L 164.0382522354219 -3.5 L 164.0382522354219 -0.5 L 127.96248549271095 -0.5 Z"/><text text-anchor="middle" pointer-events="none" font-size="8px" fill="#000000" x="94.51912611771095" y="3" transform="rotate(180 94.51912611771095 0)" font-family="Helvetica Neue, Helvetica, Arial, sans-serif">WORKED_WITH</text></g><g class="relationship" transform="translate(57.507962198231276 -83.06106118145348) rotate(255.93396954135102)"><path class="b-outline" fill="#A5ABB6" stroke="none" d="M 25 0.5 L 73.74451687709832 0.5 L 73.74451687709832 -0.5 L 25 -0.5 Z M 129.8226418770983 0.5 L 178.56715875419664 0.5 L 178.56715875419664 3.5 L 185.56715875419664 0 L 178.56715875419664 -3.5 L 178.56715875419664 -0.5 L 129.8226418770983 -0.5 Z"/><text text-anchor="middle" pointer-events="none" font-size="8px" fill="#000000" x="101.78357937709832" y="3" transform="rotate(180 101.78357937709832 0)" font-family="Helvetica Neue, Helvetica, Arial, sans-serif">WORKED_AT</text></g><g class="relationship" transform="translate(57.507962198231276 -83.06106118145348) rotate(399.36592281390256)"><path class="b-outline" fill="#A5ABB6" stroke="none" d="M 25 0.5 L 32.778051619077715 0.5 L 32.778051619077715 -0.5 L 25 -0.5 Z M 74.93430161907771 0.5 L 82.71235323815543 0.5 L 82.71235323815543 3.5 L 89.71235323815543 0 L 82.71235323815543 -3.5 L 82.71235323815543 -0.5 L 74.93430161907771 -0.5 Z"/><text text-anchor="middle" pointer-events="none" font-size="8px" fill="#000000" x="53.856176619077715" y="3" font-family="Helvetica Neue, Helvetica, Arial, sans-serif">PART_OF</text></g><g class="relationship" transform="translate(57.507962198231276 -83.06106118145348) rotate(283.0645617316576)"><path class="b-outline" fill="#A5ABB6" stroke="none" d="M 25 0.5 L 73.62375129393837 0.5 L 73.62375129393837 -0.5 L 25 -0.5 Z M 129.70187629393837 0.5 L 178.32562758787674 0.5 L 178.32562758787674 3.5 L 185.32562758787674 0 L 178.32562758787674 -3.5 L 178.32562758787674 -0.5 L 129.70187629393837 -0.5 Z"/><text text-anchor="middle" pointer-events="none" font-size="8px" fill="#000000" x="101.66281379393837" y="3" font-family="Helvetica Neue, Helvetica, Arial, sans-serif">WORKED_AT</text></g><g class="relationship" transform="translate(57.507962198231276 -83.06106118145348) rotate(201.8088728948449)"><path class="b-outline" fill="#A5ABB6" stroke="none" d="M 25 0.5 L 69.83446380301555 0.5 L 69.83446380301555 -0.5 L 25 -0.5 Z M 125.91258880301555 0.5 L 170.7470526060311 0.5 L 170.7470526060311 3.5 L 177.7470526060311 0 L 170.7470526060311 -3.5 L 170.7470526060311 -0.5 L 125.91258880301555 -0.5 Z"/><text text-anchor="middle" pointer-events="none" font-size="8px" fill="#000000" x="97.87352630301555" y="3" transform="rotate(180 97.87352630301555 0)" font-family="Helvetica Neue, Helvetica, Arial, sans-serif">WORKED_AT</text></g><g class="relationship" transform="translate(-125.81348541387263 -256.5689456993024) rotate(221.07059768685986)"><path class="b-outline" fill="#A5ABB6" stroke="none" d="M 25 0.5 L 48.39346671989058 0.5 L 48.39346671989058 -0.5 L 25 -0.5 Z M 104.47159171989058 0.5 L 127.86505843978117 0.5 L 127.86505843978117 3.5 L 134.86505843978117 0 L 127.86505843978117 -3.5 L 127.86505843978117 -0.5 L 104.47159171989058 -0.5 Z"/><text text-anchor="middle" pointer-events="none" font-size="8px" fill="#000000" x="76.43252921989058" y="3" transform="rotate(180 76.43252921989058 0)" font-family="Helvetica Neue, Helvetica, Arial, sans-serif">WORKED_AT</text></g><g class="relationship" transform="translate(57.507962198231276 -83.06106118145348) rotate(230.20401492566486)"><path class="b-outline" fill="#A5ABB6" stroke="none" d="M 25 0.5 L 40.51587928186319 0.5 L 40.51587928186319 -0.5 L 25 -0.5 Z M 107.40259803186319 0.5 L 122.91847731372638 0.5 L 122.91847731372638 3.5 L 129.91847731372638 0 L 122.91847731372638 -3.5 L 122.91847731372638 -0.5 L 107.40259803186319 -0.5 Z"/><text text-anchor="middle" pointer-events="none" font-size="8px" fill="#000000" x="73.95923865686319" y="3" transform="rotate(180 73.95923865686319 0)" font-family="Helvetica Neue, Helvetica, Arial, sans-serif">WORKED_WITH</text></g><g class="relationship" transform="translate(57.507962198231276 -83.06106118145348) rotate(532.8559364212999)"><path class="b-outline" fill="#A5ABB6" stroke="none" d="M 25 0.5 L 55.541103665931985 0.5 L 55.541103665931985 -0.5 L 25 -0.5 Z M 122.42782241593198 0.5 L 152.96892608186397 0.5 L 152.96892608186397 3.5 L 159.96892608186397 0 L 152.96892608186397 -3.5 L 152.96892608186397 -0.5 L 122.42782241593198 -0.5 Z"/><text text-anchor="middle" pointer-events="none" font-size="8px" fill="#000000" x="88.98446304093198" y="3" transform="rotate(180 88.98446304093198 0)" font-family="Helvetica Neue, Helvetica, Arial, sans-serif">WORKED_WITH</text></g><g class="relationship" transform="translate(-133.15597448378685 39.596982193262455) rotate(303.4783477430036)"><path class="b-outline" fill="#A5ABB6" stroke="none" d="M 25 0.5 L 49.057993825339295 0.5 L 49.057993825339295 -0.5 L 25 -0.5 Z M 115.9447125753393 0.5 L 140.0027064006786 0.5 L 140.0027064006786 3.5 L 147.0027064006786 0 L 140.0027064006786 -3.5 L 140.0027064006786 -0.5 L 115.9447125753393 -0.5 Z"/><text text-anchor="middle" pointer-events="none" font-size="8px" fill="#000000" x="82.5013532003393" y="3" font-family="Helvetica Neue, Helvetica, Arial, sans-serif">WORKED_WITH</text></g><g class="relationship" transform="translate(-38.27552891106862 -103.86950189650845) rotate(283.667022533142)"><path class="b-outline" fill="#A5ABB6" stroke="none" d="M 25 0.5 L 62.85628129878015 0.5 L 62.85628129878015 -0.5 L 25 -0.5 Z M 118.93440629878015 0.5 L 156.7906875975603 0.5 L 156.7906875975603 3.5 L 163.7906875975603 0 L 156.7906875975603 -3.5 L 156.7906875975603 -0.5 L 118.93440629878015 -0.5 Z"/><text text-anchor="middle" pointer-events="none" font-size="8px" fill="#000000" x="90.89534379878015" y="3" font-family="Helvetica Neue, Helvetica, Arial, sans-serif">WORKED_AT</text></g><g class="relationship" transform="translate(-218.06960980783086 -204.8314230140723) rotate(389.316038495729)"><path class="b-outline" fill="#A5ABB6" stroke="none" d="M 25 0.5 L 66.15758756689364 0.5 L 66.15758756689364 -0.5 L 25 -0.5 Z M 133.04430631689365 0.5 L 174.20189388378728 0.5 L 174.20189388378728 3.5 L 181.20189388378728 0 L 174.20189388378728 -3.5 L 174.20189388378728 -0.5 L 133.04430631689365 -0.5 Z"/><text text-anchor="middle" pointer-events="none" font-size="8px" fill="#000000" x="99.60094694189364" y="3" font-family="Helvetica Neue, Helvetica, Arial, sans-serif">WORKED_WITH</text></g><g class="relationship" transform="translate(-125.81348541387263 -256.5689456993024) rotate(420.175661587327)"><path class="b-outline" fill="#A5ABB6" stroke="none" d="M 25 0.5 L 51.062342097077135 0.5 L 51.062342097077135 -0.5 L 25 -0.5 Z M 117.94906084707713 0.5 L 144.01140294415427 0.5 L 144.01140294415427 3.5 L 151.01140294415427 0 L 144.01140294415427 -3.5 L 144.01140294415427 -0.5 L 117.94906084707713 -0.5 Z"/><text text-anchor="middle" pointer-events="none" font-size="8px" fill="#000000" x="84.50570147207713" y="3" font-family="Helvetica Neue, Helvetica, Arial, sans-serif">WORKED_WITH</text></g><g class="relationship" transform="translate(-216.39374281957666 -107.2202875948933) rotate(361.0777293991218)"><path class="b-outline" fill="#A5ABB6" stroke="none" d="M 25 0.5 L 52.131505051999724 0.5 L 52.131505051999724 -0.5 L 25 -0.5 Z M 119.01822380199972 0.5 L 146.14972885399945 0.5 L 146.14972885399945 3.5 L 153.14972885399945 0 L 146.14972885399945 -3.5 L 146.14972885399945 -0.5 L 119.01822380199972 -0.5 Z"/><text text-anchor="middle" pointer-events="none" font-size="8px" fill="#000000" x="85.57486442699972" y="3" font-family="Helvetica Neue, Helvetica, Arial, sans-serif">WORKED_WITH</text></g><g class="relationship" transform="translate(57.97893655088602 -202.63644295016894) rotate(494.26189495453104)"><path class="b-outline" fill="#A5ABB6" stroke="none" d="M 25 0.5 L 32.01284188069539 0.5 L 32.01284188069539 -0.5 L 25 -0.5 Z M 98.89956063069539 0.5 L 105.91240251139078 0.5 L 105.91240251139078 3.5 L 112.91240251139078 0 L 105.91240251139078 -3.5 L 105.91240251139078 -0.5 L 98.89956063069539 -0.5 Z"/><text text-anchor="middle" pointer-events="none" font-size="8px" fill="#000000" x="65.45620125569539" y="3" transform="rotate(180 65.45620125569539 0)" font-family="Helvetica Neue, Helvetica, Arial, sans-serif">WORKED_WITH</text></g><g class="relationship" transform="translate(-38.27552891106862 -103.86950189650845) rotate(210.52561794898867)"><path class="b-outline" fill="#A5ABB6" stroke="none" d="M 25 0.5 L 25.164024332536272 0.5 L 25.164024332536272 -0.5 L 25 -0.5 Z M 75.16402433253627 0.5 L 75.32804866507254 0.5 L 75.32804866507254 3.5 L 82.32804866507254 0 L 75.32804866507254 -3.5 L 75.32804866507254 -0.5 L 75.16402433253627 -0.5 Z"/><text text-anchor="middle" pointer-events="none" font-size="8px" fill="#000000" x="50.16402433253627" y="3" transform="rotate(180 50.16402433253627 0)" font-family="Helvetica Neue, Helvetica, Arial, sans-serif">WORKED…</text></g><g class="relationship" transform="translate(57.507962198231276 -83.06106118145348) rotate(308.8394066551273)"><path class="b-outline" fill="#A5ABB6" stroke="none" d="M 25 0.5 L 46.480584878667656 0.5 L 46.480584878667656 -0.5 L 25 -0.5 Z M 104.92980362866766 0.5 L 126.41038850733531 0.5 L 126.41038850733531 3.5 L 133.4103885073353 0 L 126.41038850733531 -3.5 L 126.41038850733531 -0.5 L 104.92980362866766 -0.5 Z"/><text text-anchor="middle" pointer-events="none" font-size="8px" fill="#000000" x="75.70519425366766" y="3" font-family="Helvetica Neue, Helvetica, Arial, sans-serif">WORKED_ON</text></g><g class="relationship" transform="translate(57.507962198231276 -83.06106118145348) rotate(524.8139077902704)"><path class="b-outline" fill="#A5ABB6" stroke="none" d="M 24.018736134675446,-6.953439040707552 L 24.277555179777966,-5.987513214418485 A 460.33787912475 460.33787912475 0 0 1 112.60896242022346,-20.640758016137227 L 112.54202723097134,-21.63851534156248 A 461.33787912475 461.33787912475 0 0 0 24.018736134675446,-6.953439040707552 Z M 168.64530690887275,-21.983084346182636 L 168.59063214104887,-20.98458012998549 A 460.33787912475 460.33787912475 0 0 1 257.09536045919344,-7.417408220263783 L 256.3545550629747,-4.5103121838499085 L 264.00205211019556,-6.173378301822474 L 258.083100987485,-11.293536268815616 L 257.3422955912663,-8.38644023240174 A 461.33787912475 461.33787912475 0 0 0 168.64530690887275,-21.983084346182636"/><text text-anchor="middle" pointer-events="none" font-size="8px" fill="#000000" x="140.59149503028357" y="-19.164454832205138" transform="rotate(180 140.59149503028357 -22.164454832205138)" font-family="Helvetica Neue, Helvetica, Arial, sans-serif">WORKED_AT</text></g><g class="relationship" transform="translate(-220.65500502196454 -7.558355440281751) rotate(509.3539639129801)"><path class="b-outline" fill="#A5ABB6" stroke="none" d="M 25 0.5 L 53.55160936988683 0.5 L 53.55160936988683 -0.5 L 25 -0.5 Z M 95.70785936988683 0.5 L 124.25946873977367 0.5 L 124.25946873977367 3.5 L 131.25946873977367 0 L 124.25946873977367 -3.5 L 124.25946873977367 -0.5 L 95.70785936988683 -0.5 Z"/><text text-anchor="middle" pointer-events="none" font-size="8px" fill="#000000" x="74.62973436988683" y="3" transform="rotate(180 74.62973436988683 0)" font-family="Helvetica Neue, Helvetica, Arial, sans-serif">PART_OF</text></g><g class="relationship" transform="translate(57.507962198231276 -83.06106118145348) rotate(524.8139077902704)"><path class="b-outline" fill="#A5ABB6" stroke="none" d="M 24.018736134675446,6.953439040707552 L 24.277555179777966,5.987513214418485 A 460.33787912475 460.33787912475 0 0 0 111.42746101750072,20.559969506241657 L 111.35795923215406,21.557551333378456 A 461.33787912475 461.33787912475 0 0 1 24.018736134675446,6.953439040707552 Z M 169.83028005841848,21.91667025656102 L 169.77303673248747,20.91831000012229 A 460.33787912475 460.33787912475 0 0 0 257.09536045919344,7.417408220263783 L 256.3545550629747,4.5103121838499085 L 264.00205211019556,6.173378301822474 L 258.083100987485,11.293536268815616 L 257.3422955912663,8.38644023240174 A 461.33787912475 461.33787912475 0 0 1 169.83028005841848,21.91667025656102"/><text text-anchor="middle" pointer-events="none" font-size="8px" fill="#000000" x="140.59149503028362" y="25.164454832205138" transform="rotate(180 140.59149503028362 22.164454832205138)" font-family="Helvetica Neue, Helvetica, Arial, sans-serif">WORKED_ON</text></g><g class="relationship" transform="translate(57.507962198231276 -83.06106118145348) rotate(502.21513442620244)"><path class="b-outline" fill="#A5ABB6" stroke="none" d="M 25 0.5 L 33.169372553829064 0.5 L 33.169372553829064 -0.5 L 25 -0.5 Z M 89.24749755382906 0.5 L 97.41687010765813 0.5 L 97.41687010765813 3.5 L 104.41687010765813 0 L 97.41687010765813 -3.5 L 97.41687010765813 -0.5 L 89.24749755382906 -0.5 Z"/><text text-anchor="middle" pointer-events="none" font-size="8px" fill="#000000" x="61.208435053829064" y="3" transform="rotate(180 61.208435053829064 0)" font-family="Helvetica Neue, Helvetica, Arial, sans-serif">WORKED_AT</text></g><g class="relationship" transform="translate(-125.81348541387263 -256.5689456993024) rotate(470.85050806169966)"><path class="b-outline" fill="#A5ABB6" stroke="none" d="M 25 0.5 L 101.69117796994541 0.5 L 101.69117796994541 -0.5 L 25 -0.5 Z M 157.76930296994541 0.5 L 234.46048093989083 0.5 L 234.46048093989083 3.5 L 241.46048093989083 0 L 234.46048093989083 -3.5 L 234.46048093989083 -0.5 L 157.76930296994541 -0.5 Z"/><text text-anchor="middle" pointer-events="none" font-size="8px" fill="#000000" x="129.73024046994541" y="3" transform="rotate(180 129.73024046994541 0)" font-family="Helvetica Neue, Helvetica, Arial, sans-serif">WORKED_AT</text></g><g class="relationship" transform="translate(-218.06960980783086 -204.8314230140723) rotate(450.75085644405385)"><path class="b-outline" fill="#A5ABB6" stroke="none" d="M 25 0.5 L 74.06687925564717 0.5 L 74.06687925564717 -0.5 L 25 -0.5 Z M 116.22312925564717 0.5 L 165.29000851129433 0.5 L 165.29000851129433 3.5 L 172.29000851129433 0 L 165.29000851129433 -3.5 L 165.29000851129433 -0.5 L 116.22312925564717 -0.5 Z"/><text text-anchor="middle" pointer-events="none" font-size="8px" fill="#000000" x="95.14500425564717" y="3" transform="rotate(180 95.14500425564717 0)" font-family="Helvetica Neue, Helvetica, Arial, sans-serif">PART_OF</text></g><g class="relationship" transform="translate(-216.39374281957666 -107.2202875948933) rotate(452.4483141442193)"><path class="b-outline" fill="#A5ABB6" stroke="none" d="M 25 0.5 L 25.298370156405824 0.5 L 25.298370156405824 -0.5 L 25 -0.5 Z M 67.45462015640582 0.5 L 67.75299031281165 0.5 L 67.75299031281165 3.5 L 74.75299031281165 0 L 67.75299031281165 -3.5 L 67.75299031281165 -0.5 L 67.45462015640582 -0.5 Z"/><text text-anchor="middle" pointer-events="none" font-size="8px" fill="#000000" x="46.376495156405824" y="3" transform="rotate(180 46.376495156405824 0)" font-family="Helvetica Neue, Helvetica, Arial, sans-serif">PART_OF</text></g><g class="relationship" transform="translate(-409.6623025324082 414.3918618661501) rotate(396.9418912278172)"><path class="b-outline" fill="#A5ABB6" stroke="none" d="M 25 0.5 L 34.948621529537974 0.5 L 34.948621529537974 -0.5 L 25 -0.5 Z M 101.83534027953797 0.5 L 111.78396180907595 0.5 L 111.78396180907595 3.5 L 118.78396180907595 0 L 111.78396180907595 -3.5 L 111.78396180907595 -0.5 L 101.83534027953797 -0.5 Z"/><text text-anchor="middle" pointer-events="none" font-size="8px" fill="#000000" x="68.39198090453797" y="3" font-family="Helvetica Neue, Helvetica, Arial, sans-serif">WORKED_WITH</text></g><g class="relationship" transform="translate(57.507962198231276 -83.06106118145348) rotate(453.21730974145555)"><path class="b-outline" fill="#A5ABB6" stroke="none" d="M 25 0.5 L 66.98234183315505 0.5 L 66.98234183315505 -0.5 L 25 -0.5 Z M 123.06046683315505 0.5 L 165.0428086663101 0.5 L 165.0428086663101 3.5 L 172.0428086663101 0 L 165.0428086663101 -3.5 L 165.0428086663101 -0.5 L 123.06046683315505 -0.5 Z"/><text text-anchor="middle" pointer-events="none" font-size="8px" fill="#000000" x="95.02140433315505" y="3" transform="rotate(180 95.02140433315505 0)" font-family="Helvetica Neue, Helvetica, Arial, sans-serif">WORKED_AT</text></g><g class="relationship" transform="translate(57.507962198231276 -83.06106118145348) rotate(399.36592281390256)"><path class="b-outline" fill="#A5ABB6" stroke="none" d="M 21.40063509461097,12.933012701892217 L 21.90063509461097,12.06698729810778 A 67.43281772931589 67.43281772931589 0 0 0 25.73052152789131,14.116619360499357 L 25.287317114406083,15.013039935825027 A 68.43281772931589 68.43281772931589 0 0 1 21.40063509461097,12.933012701892217 Z M 82.34336852694614,16.666502616934473 L 81.9528201693819,15.74592020323982 A 67.43281772931589 67.43281772931589 0 0 0 85.89497461605181,13.921518931148475 L 84.54794812318053,11.240936974277375 L 92.37417026422959,11.225220773927337 L 87.69100993988019,17.49562820697661 L 86.34398344700891,14.815046250105508 A 68.43281772931589 68.43281772931589 0 0 1 82.34336852694614,16.666502616934473"/><text text-anchor="middle" pointer-events="none" font-size="8px" fill="#000000" x="53.649202866036966" y="24.572764165706957" font-family="Helvetica Neue, Helvetica, Arial, sans-serif">WORKED_ON</text></g></g><g class="layer nodes"><g class="node" aria-label="graph-node110" transform="translate(-39.05609256600701,550.7990420813555)"><circle class="b-outline" cx="0" cy="0" r="25" fill="#F16667" stroke="#eb2728" stroke-width="2px"/><text class="caption" text-anchor="middle" pointer-events="none" x="0" y="0" font-size="10px" fill="#FFFFFF" font-family="Helvetica Neue, Helvetica, Arial, sans-serif"> Rich</text><text class="caption" text-anchor="middle" pointer-events="none" x="0" y="10" font-size="10px" fill="#FFFFFF" font-family="Helvetica Neue, Helvetica, Arial, sans-serif"> Draves</text></g><g class="node" aria-label="graph-node111" transform="translate(104.11187859316563,560.4402565399166)"><circle class="b-outline" cx="0" cy="0" r="25" fill="#8DCC93" stroke="#5db665" stroke-width="2px"/><text class="caption" text-anchor="middle" pointer-events="none" x="0" y="5" font-size="10px" fill="#2A2C34" font-family="Helvetica Neue, Helvetica, Arial, sans-serif"> CMU</text></g><g class="node" aria-label="graph-node112" transform="translate(-38.27552891106862,-103.86950189650845)"><circle class="b-outline" cx="0" cy="0" r="25" fill="#F16667" stroke="#eb2728" stroke-width="2px"/><text class="caption" text-anchor="middle" pointer-events="none" x="0" y="0" font-size="10px" fill="#FFFFFF" font-family="Helvetica Neue, Helvetica, Arial, sans-serif"> Paul</text><text class="caption" text-anchor="middle" pointer-events="none" x="0" y="10" font-size="10px" fill="#FFFFFF" font-family="Helvetica Neue, Helvetica, Arial, sans-serif"> Graham</text></g><g class="node" aria-label="graph-node113" transform="translate(51.88650278280258,15.817768125754279)"><circle class="b-outline" cx="0" cy="0" r="25" fill="#8DCC93" stroke="#5db665" stroke-width="2px"/><text class="caption" text-anchor="middle" pointer-events="none" x="0" y="5" font-size="10px" fill="#2A2C34" font-family="Helvetica Neue, Helvetica, Arial, sans-serif"> Harvard</text></g><g class="node" aria-label="graph-node114" transform="translate(57.507962198231276,-83.06106118145348)"><circle class="b-outline" cx="0" cy="0" r="25" fill="#F16667" stroke="#eb2728" stroke-width="2px"/><text class="caption" text-anchor="middle" pointer-events="none" x="0" y="5" font-size="10px" fill="#FFFFFF" font-family="Helvetica Neue, Helvetica, Arial, sans-serif"> John</text></g><g class="node" aria-label="graph-node115" transform="translate(139.9229044729303,87.00761115527311)"><circle class="b-outline" cx="0" cy="0" r="25" fill="#DA7194" stroke="#cc3c6c" stroke-width="2px"/><text class="caption" text-anchor="middle" pointer-events="none" x="0" y="5" font-size="10px" fill="#FFFFFF" font-family="Helvetica Neue, Helvetica, Arial, sans-serif"> RISD</text></g><g class="node" aria-label="graph-node116" transform="translate(227.75904394032594,43.347039316397726)"><circle class="b-outline" cx="0" cy="0" r="25" fill="#DA7194" stroke="#cc3c6c" stroke-width="2px"/><text class="caption" text-anchor="middle" pointer-events="none" x="0" y="5" font-size="10px" fill="#FFFFFF" font-family="Helvetica Neue, Helvetica, Arial, sans-serif"> Providen…</text></g><g class="node" aria-label="graph-node117" transform="translate(-50.31150110851984,93.44240600255755)"><circle class="b-outline" cx="0" cy="0" r="25" fill="#8DCC93" stroke="#5db665" stroke-width="2px"/><text class="caption" text-anchor="middle" pointer-events="none" x="0" y="5" font-size="10px" fill="#2A2C34" font-family="Helvetica Neue, Helvetica, Arial, sans-serif"> Interleaf</text></g><g class="node" aria-label="graph-node118" transform="translate(146.1933384205089,-10.302363902376102)"><circle class="b-outline" cx="0" cy="0" r="25" fill="#8DCC93" stroke="#5db665" stroke-width="2px"/><text class="caption" text-anchor="middle" pointer-events="none" x="0" y="5" font-size="10px" fill="#2A2C34" font-family="Helvetica Neue, Helvetica, Arial, sans-serif"> Viaweb</text></g><g class="node" aria-label="graph-node119" transform="translate(156.85340144228442,-206.44799277654198)"><circle class="b-outline" cx="0" cy="0" r="25" fill="#8DCC93" stroke="#5db665" stroke-width="2px"/><text class="caption" text-anchor="middle" pointer-events="none" x="0" y="0" font-size="10px" fill="#2A2C34" font-family="Helvetica Neue, Helvetica, Arial, sans-serif"> Y</text><text class="caption" text-anchor="middle" pointer-events="none" x="0" y="10" font-size="10px" fill="#2A2C34" font-family="Helvetica Neue, Helvetica, Arial, sans-serif"> Combi…</text></g><g class="node" aria-label="graph-node120" transform="translate(236.82460629093222,-54.48167660005323)"><circle class="b-outline" cx="0" cy="0" r="25" fill="#F16667" stroke="#eb2728" stroke-width="2px"/><text class="caption" text-anchor="middle" pointer-events="none" x="0" y="0" font-size="10px" fill="#FFFFFF" font-family="Helvetica Neue, Helvetica, Arial, sans-serif"> Nancy</text><text class="caption" text-anchor="middle" pointer-events="none" x="0" y="10" font-size="10px" fill="#FFFFFF" font-family="Helvetica Neue, Helvetica, Arial, sans-serif"> Parmet</text></g><g class="node" aria-label="graph-node121" transform="translate(452.27658093323885,-438.8162871260865)"><circle class="b-outline" cx="0" cy="0" r="25" fill="#F16667" stroke="#eb2728" stroke-width="2px"/><text class="caption" text-anchor="middle" pointer-events="none" x="0" y="0" font-size="10px" fill="#FFFFFF" font-family="Helvetica Neue, Helvetica, Arial, sans-serif"> Julian</text><text class="caption" text-anchor="middle" pointer-events="none" x="0" y="10" font-size="10px" fill="#FFFFFF" font-family="Helvetica Neue, Helvetica, Arial, sans-serif"> Weber</text></g><g class="node" aria-label="graph-node122" transform="translate(340.5607028679499,-531.996318069169)"><circle class="b-outline" cx="0" cy="0" r="25" fill="#F16667" stroke="#eb2728" stroke-width="2px"/><text class="caption" text-anchor="middle" pointer-events="none" x="0" y="0" font-size="10px" fill="#FFFFFF" font-family="Helvetica Neue, Helvetica, Arial, sans-serif"> Idelle</text><text class="caption" text-anchor="middle" pointer-events="none" x="0" y="10" font-size="10px" fill="#FFFFFF" font-family="Helvetica Neue, Helvetica, Arial, sans-serif"> Weber</text></g><g class="node" aria-label="graph-node123" transform="translate(153.2761877060953,-108.01223548795546)"><circle class="b-outline" cx="0" cy="0" r="25" fill="#F16667" stroke="#eb2728" stroke-width="2px"/><text class="caption" text-anchor="middle" pointer-events="none" x="0" y="0" font-size="10px" fill="#FFFFFF" font-family="Helvetica Neue, Helvetica, Arial, sans-serif"> Robert</text><text class="caption" text-anchor="middle" pointer-events="none" x="0" y="10" font-size="10px" fill="#FFFFFF" font-family="Helvetica Neue, Helvetica, Arial, sans-serif"> Morris</text></g><g class="node" aria-label="graph-node124" transform="translate(57.97893655088602,-202.63644295016894)"><circle class="b-outline" cx="0" cy="0" r="25" fill="#F16667" stroke="#eb2728" stroke-width="2px"/><text class="caption" text-anchor="middle" pointer-events="none" x="0" y="5" font-size="10px" fill="#FFFFFF" font-family="Helvetica Neue, Helvetica, Arial, sans-serif"> Julian</text></g><g class="node" aria-label="graph-node125" transform="translate(-125.81348541387263,-256.5689456993024)"><circle class="b-outline" cx="0" cy="0" r="25" fill="#F16667" stroke="#eb2728" stroke-width="2px"/><text class="caption" text-anchor="middle" pointer-events="none" x="0" y="5" font-size="10px" fill="#FFFFFF" font-family="Helvetica Neue, Helvetica, Arial, sans-serif"> Robert</text></g><g class="node" aria-label="graph-node126" transform="translate(240.2554100096648,-154.01433212738152)"><circle class="b-outline" cx="0" cy="0" r="25" fill="#F16667" stroke="#eb2728" stroke-width="2px"/><text class="caption" text-anchor="middle" pointer-events="none" x="0" y="0" font-size="10px" fill="#FFFFFF" font-family="Helvetica Neue, Helvetica, Arial, sans-serif"> Trevor</text><text class="caption" text-anchor="middle" pointer-events="none" x="0" y="10" font-size="10px" fill="#FFFFFF" font-family="Helvetica Neue, Helvetica, Arial, sans-serif"> Black…</text></g><g class="node" aria-label="graph-node127" transform="translate(6.331730262631308,-287.31463307357177)"><circle class="b-outline" cx="0" cy="0" r="25" fill="#8DCC93" stroke="#5db665" stroke-width="2px"/><text class="caption" text-anchor="middle" pointer-events="none" x="0" y="5" font-size="10px" fill="#2A2C34" font-family="Helvetica Neue, Helvetica, Arial, sans-serif"> Yahoo</text></g><g class="node" aria-label="graph-node128" transform="translate(105.05182757729634,-287.94261351121196)"><circle class="b-outline" cx="0" cy="0" r="25" fill="#DA7194" stroke="#cc3c6c" stroke-width="2px"/><text class="caption" text-anchor="middle" pointer-events="none" x="0" y="5" font-size="10px" fill="#FFFFFF" font-family="Helvetica Neue, Helvetica, Arial, sans-serif"> New York</text></g><g class="node" aria-label="graph-node144" transform="translate(-130.7281402509009,-158.38394664923518)"><circle class="b-outline" cx="0" cy="0" r="25" fill="#DA7194" stroke="#cc3c6c" stroke-width="2px"/><text class="caption" text-anchor="middle" pointer-events="none" x="0" y="5" font-size="10px" fill="#FFFFFF" font-family="Helvetica Neue, Helvetica, Arial, sans-serif"> Cambrid…</text></g><g class="node" aria-label="graph-node145" transform="translate(-246.3358547194605,-361.5984434935989)"><circle class="b-outline" cx="0" cy="0" r="25" fill="#8DCC93" stroke="#5db665" stroke-width="2px"/><text class="caption" text-anchor="middle" pointer-events="none" x="0" y="5" font-size="10px" fill="#2A2C34" font-family="Helvetica Neue, Helvetica, Arial, sans-serif"> MIT</text></g><g class="node" aria-label="graph-node146" transform="translate(-41.64851725576585,-202.08932335263955)"><circle class="b-outline" cx="0" cy="0" r="25" fill="#F16667" stroke="#eb2728" stroke-width="2px"/><text class="caption" text-anchor="middle" pointer-events="none" x="0" y="5" font-size="10px" fill="#FFFFFF" font-family="Helvetica Neue, Helvetica, Arial, sans-serif"> Dan Giffin</text></g><g class="node" aria-label="graph-node147" transform="translate(-126.02497393371438,-60.05747514220285)"><circle class="b-outline" cx="0" cy="0" r="25" fill="#F16667" stroke="#eb2728" stroke-width="2px"/><text class="caption" text-anchor="middle" pointer-events="none" x="0" y="5" font-size="10px" fill="#FFFFFF" font-family="Helvetica Neue, Helvetica, Arial, sans-serif"> Idelle</text></g><g class="node" aria-label="graph-node148" transform="translate(-133.15597448378685,39.596982193262455)"><circle class="b-outline" cx="0" cy="0" r="25" fill="#F16667" stroke="#eb2728" stroke-width="2px"/><text class="caption" text-anchor="middle" pointer-events="none" x="0" y="5" font-size="10px" fill="#FFFFFF" font-family="Helvetica Neue, Helvetica, Arial, sans-serif"> Dan</text></g><g class="node" aria-label="graph-node149" transform="translate(-218.06960980783086,-204.8314230140723)"><circle class="b-outline" cx="0" cy="0" r="25" fill="#F16667" stroke="#eb2728" stroke-width="2px"/><text class="caption" text-anchor="middle" pointer-events="none" x="0" y="5" font-size="10px" fill="#FFFFFF" font-family="Helvetica Neue, Helvetica, Arial, sans-serif"> Jessica</text></g><g class="node" aria-label="graph-node150" transform="translate(-216.39374281957666,-107.2202875948933)"><circle class="b-outline" cx="0" cy="0" r="25" fill="#F16667" stroke="#eb2728" stroke-width="2px"/><text class="caption" text-anchor="middle" pointer-events="none" x="0" y="5" font-size="10px" fill="#FFFFFF" font-family="Helvetica Neue, Helvetica, Arial, sans-serif"> Trevor</text></g><g class="node" aria-label="graph-node151" transform="translate(-220.65500502196454,-7.558355440281751)"><circle class="b-outline" cx="0" cy="0" r="25" fill="#8DCC93" stroke="#5db665" stroke-width="2px"/><text class="caption" text-anchor="middle" pointer-events="none" x="0" y="5" font-size="10px" fill="#2A2C34" font-family="Helvetica Neue, Helvetica, Arial, sans-serif"> YC</text></g><g class="node" aria-label="graph-node152" transform="translate(-355.0901425315029,72.09222756843083)"><circle class="b-outline" cx="0" cy="0" r="25" fill="#8DCC93" stroke="#5db665" stroke-width="2px"/><text class="caption" text-anchor="middle" pointer-events="none" x="0" y="5" font-size="10px" fill="#2A2C34" font-family="Helvetica Neue, Helvetica, Arial, sans-serif"> Startup</text></g><g class="node" aria-label="graph-node153" transform="translate(-44.772374997411326,-3.767562761922858)"><circle class="b-outline" cx="0" cy="0" r="25" fill="#DA7194" stroke="#cc3c6c" stroke-width="2px"/><text class="caption" text-anchor="middle" pointer-events="none" x="0" y="5" font-size="10px" fill="#FFFFFF" font-family="Helvetica Neue, Helvetica, Arial, sans-serif"> Oregon</text></g><g class="node" aria-label="graph-node154" transform="translate(-409.6623025324082,414.3918618661501)"><circle class="b-outline" cx="0" cy="0" r="25" fill="#F16667" stroke="#eb2728" stroke-width="2px"/><text class="caption" text-anchor="middle" pointer-events="none" x="0" y="0" font-size="10px" fill="#FFFFFF" font-family="Helvetica Neue, Helvetica, Arial, sans-serif"> Steve</text><text class="caption" text-anchor="middle" pointer-events="none" x="0" y="10" font-size="10px" fill="#FFFFFF" font-family="Helvetica Neue, Helvetica, Arial, sans-serif"> Russell</text></g><g class="node" aria-label="graph-node155" transform="translate(-294.74362475174536,500.8067053287058)"><circle class="b-outline" cx="0" cy="0" r="25" fill="#F16667" stroke="#eb2728" stroke-width="2px"/><text class="caption" text-anchor="middle" pointer-events="none" x="0" y="0" font-size="10px" fill="#FFFFFF" font-family="Helvetica Neue, Helvetica, Arial, sans-serif"> John</text><text class="caption" text-anchor="middle" pointer-events="none" x="0" y="10" font-size="10px" fill="#FFFFFF" font-family="Helvetica Neue, Helvetica, Arial, sans-serif"> McCar…</text></g><g class="node" aria-label="graph-node156" transform="translate(46.44930039971773,113.67117930376588)"><circle class="b-outline" cx="0" cy="0" r="25" fill="#DA7194" stroke="#cc3c6c" stroke-width="2px"/><text class="caption" text-anchor="middle" pointer-events="none" x="0" y="5" font-size="10px" fill="#FFFFFF" font-family="Helvetica Neue, Helvetica, Arial, sans-serif"> England</text></g></g></svg>